<?xml version="1.0" encoding="UTF-8"?>
<svg version="1.1" xmlns="http://www.w3.org/2000/svg" width="1024" height="1024">
<path d="M0 0 C0.33 0.66 0.66 1.32 1 2 C2.258125 1.835 3.51625 1.67 4.8125 1.5 C8.97851603 0.95363724 13.07233955 1.00099559 17.26914978 1.00672913 C32.47570847 1.02685021 47.68226234 1.04202549 62.88883114 1.05181217 C70.69957456 1.05697371 78.51030794 1.06401864 86.32104492 1.07543945 C93.13782097 1.08540187 99.95458973 1.09185686 106.77137285 1.09408849 C110.37869295 1.0953923 113.98599218 1.09845777 117.59330559 1.10573006 C121.61551721 1.11377426 125.63769248 1.11399017 129.65991211 1.11352539 C130.85641388 1.11712067 132.05291565 1.12071594 133.28567505 1.12442017 C134.38067825 1.1230455 135.47568146 1.12167084 136.60386658 1.12025452 C137.55494765 1.12117631 138.50602873 1.1220981 139.48593044 1.12304783 C141.81421844 1.00909283 143.75304452 0.56487197 146 0 C147.61907254 0.23611475 149.23762608 0.47710435 150.8515625 0.74609375 C153.38130494 1.04506331 155.82760202 1.03140628 158.375 1 C166.27272838 0.919616 174.12389558 1.47741487 182 2 C182.33 1.34 182.66 0.68 183 0 C183 0.66 183 1.32 183 2 C183.86625 1.835 184.7325 1.67 185.625 1.5 C191.66474519 0.64073728 197.92479609 0.53510113 204 1 C206 3 206 3 206.62890625 5.6015625 C205.62762864 11.01219307 201.8639718 13.72458288 197.9375 17.375 C196.42336187 18.81777772 194.91162155 20.2630762 193.40234375 21.7109375 C192.65968262 22.42088867 191.91702148 23.13083984 191.15185547 23.86230469 C188.470922 26.52559644 186.01276896 29.339858 183.55688477 32.20947266 C181.48428458 34.59310912 179.26239302 36.79714364 177 39 C174.15136993 41.81456574 171.39470688 44.62735252 168.8125 47.6875 C165.261957 51.84816017 161.38341393 55.6541478 157.5 59.5 C153.06962429 63.88756498 148.75692949 68.2778671 144.734375 73.046875 C141.9779879 76.15091453 138.99298103 79.02698195 136.03930664 81.94116211 C133.47667481 84.48273482 131.01803098 87.05716337 128.6875 89.8125 C124.76291979 94.42126853 120.42192261 98.60327623 116.12280273 102.85766602 C112.48304942 106.47405951 109.01859021 110.15984793 105.703125 114.078125 C102.76256818 117.39636801 99.55516136 120.45151727 96.40234375 123.56640625 C94.36285627 125.63242365 92.444922 127.73005549 90.5625 129.9375 C87.69827626 133.28925119 84.63665531 136.40556078 81.5 139.5 C78.40508128 142.55337618 75.38065703 145.62323708 72.5625 148.9375 C69.06423799 153.04268939 65.24316838 156.78437205 61.40917969 160.57128906 C58.00913777 163.94568641 54.81236685 167.42488275 51.70703125 171.07421875 C49.72400205 173.31136611 47.62806614 175.40054652 45.5 177.5 C42.79616607 180.16754086 40.20744465 182.85459492 37.75 185.75 C33.8730492 190.28842108 29.6165461 194.43567605 25.35449219 198.60839844 C22.29813229 201.51252568 22.29813229 201.51252568 20 205 C19.34 205 18.68 205 18 205 C17.78472656 205.54398438 17.56945312 206.08796875 17.34765625 206.6484375 C15.53620359 209.80929113 13.04503977 212.12763796 10.4375 214.625 C6.77285984 217.96402902 6.77285984 217.96402902 4 222 C3.34 222 2.68 222 2 222 C2 222.66 2 223.32 2 224 C1.34 224 0.68 224 0 224 C-0.23332031 224.56203125 -0.46664062 225.1240625 -0.70703125 225.703125 C-2.31937076 228.56734142 -4.3193562 230.47252021 -6.6875 232.75 C-9.64592401 235.64538941 -12.52460721 238.51838019 -15.1875 241.6875 C-19.44086006 246.68057486 -24.16953166 251.21775291 -28.84643555 255.80932617 C-29.48105713 256.43556885 -30.11567871 257.06181152 -30.76953125 257.70703125 C-31.34292236 258.2688208 -31.91631348 258.83061035 -32.50708008 259.40942383 C-34.20957915 261.13564277 -34.20957915 261.13564277 -36 264 C-36.66 264 -37.32 264 -38 264 C-38.23332031 264.56203125 -38.46664062 265.1240625 -38.70703125 265.703125 C-40.31937076 268.56734142 -42.3193562 270.47252021 -44.6875 272.75 C-47.72924367 275.72656345 -50.682165 278.69396244 -53.4375 281.9375 C-56.30172355 285.28925096 -59.36334093 288.40556417 -62.5 291.5 C-65.61579123 294.57390527 -68.65877238 297.66702145 -71.5 301 C-74.78098607 304.84884905 -78.34955494 308.37859048 -81.9465332 311.92700195 C-85.2404224 315.19364547 -88.31481876 318.57894036 -91.32421875 322.10546875 C-93.76775829 324.86797849 -96.40817912 327.41726658 -99.03515625 330.00390625 C-100.92230744 331.92107177 -102.68685375 333.89575322 -104.4375 335.9375 C-107.00665271 338.92801716 -109.69317256 341.73116684 -112.5 344.5 C-115.2244154 347.1877846 -117.83260312 349.89816863 -120.3125 352.8125 C-123.37500183 356.38898815 -126.65280287 359.69389799 -130 363 C-133.89896506 366.85121289 -137.60824307 370.7642174 -141.16015625 374.94140625 C-143.95560088 378.06921797 -146.96177012 380.98253597 -149.94677734 383.92724609 C-153.24058677 387.19380581 -156.3148941 390.57902865 -159.32421875 394.10546875 C-161.13977378 396.15801931 -163.04759536 398.07746006 -165 400 C-167.51761696 402.47925327 -169.90090722 404.99440184 -172.1875 407.6875 C-175.97093108 412.09715415 -180.10152978 416.12860819 -184.22998047 420.21044922 C-187.77723993 423.73308206 -191.14159547 427.34083265 -194.375 431.15625 C-196.87532614 433.99315851 -199.58562643 436.60847511 -202.30078125 439.23828125 C-204.19089136 441.09309306 -204.19089136 441.09309306 -206 444 C-206.66 444 -207.32 444 -208 444 C-208.24621094 444.57492187 -208.49242187 445.14984375 -208.74609375 445.7421875 C-210.19793053 448.35639827 -211.90287549 450.06336208 -214.0625 452.125 C-216.91571933 454.77905 -216.91571933 454.77905 -219 458 C-219.66 458 -220.32 458 -221 458 C-221.26876953 458.5969165 -221.53753906 459.19383301 -221.81445312 459.80883789 C-223.0044815 462.00828283 -224.16043027 463.35281625 -225.96875 465.05859375 C-226.82533203 465.88520508 -226.82533203 465.88520508 -227.69921875 466.72851562 C-228.89779089 467.86598919 -230.09830893 469.0014159 -231.30078125 470.13476562 C-234.59529199 473.32144249 -236.3517648 475.67338259 -238 480 C-239.30703561 480.71685433 -240.64642457 481.37545555 -242 482 C-243.94111079 483.77703409 -245.79135728 485.5572808 -247.625 487.4375 C-248.11484375 487.92798828 -248.6046875 488.41847656 -249.109375 488.92382812 C-251.3469118 491.18887562 -253.22778332 493.34167499 -255 496 C-255.66 496 -256.32 496 -257 496 C-257.2678833 496.59458008 -257.5357666 497.18916016 -257.81176758 497.80175781 C-259.01210673 500.02239757 -260.20702998 501.4243607 -262.01171875 503.171875 C-262.89561279 504.0383667 -262.89561279 504.0383667 -263.79736328 504.92236328 C-264.4211084 505.5254834 -265.04485352 506.12860352 -265.6875 506.75 C-270.03281959 511.01645319 -274.23033367 515.29272967 -278.1640625 519.9453125 C-281.16220293 523.30067817 -284.3978575 526.41743761 -287.59814453 529.57861328 C-290.92292646 532.87838901 -294.03969455 536.2781473 -297.0703125 539.8515625 C-300.23031821 543.36978748 -303.62048404 546.66050302 -307.00195312 549.96484375 C-309.86109006 552.70625742 -309.86109006 552.70625742 -312 556 C-312.66 556 -313.32 556 -314 556 C-314.23332031 556.56203125 -314.46664063 557.1240625 -314.70703125 557.703125 C-316.31937076 560.56734142 -318.3193562 562.47252021 -320.6875 564.75 C-324.433075 568.4148514 -327.95061784 572.15774778 -331.35546875 576.13671875 C-333.54516996 578.61768663 -335.89808131 580.90878208 -338.2578125 583.2265625 C-340.04715827 585.04800415 -341.71288532 586.93714279 -343.375 588.875 C-345.96634205 591.8846753 -348.67254783 594.71088616 -351.5 597.5 C-354.9288279 600.88241399 -358.12048518 604.38070442 -361.25390625 608.03515625 C-363.09615675 610.10820324 -365.02401662 612.05435802 -367 614 C-369.55869259 616.51955389 -371.98170611 619.08118782 -374.3125 621.8125 C-378.1752636 626.31905753 -382.40465401 630.43572372 -386.64453125 634.58203125 C-389.10724266 636.9623308 -389.10724266 636.9623308 -391 640 C-391.66 640 -392.32 640 -393 640 C-393.24363281 640.57234375 -393.48726562 641.1446875 -393.73828125 641.734375 C-395.22517298 644.40433538 -396.98083908 646.13829007 -399.1875 648.25 C-401.98190985 650.97808683 -404.67067541 653.70198103 -407.1875 656.6875 C-410.59160062 660.66559417 -414.28127429 664.31999589 -418 668 C-423.41495401 673.34464761 -423.41495401 673.34464761 -428.5 679 C-432.35055655 683.55780163 -436.6451405 687.66957484 -440.88232422 691.86279297 C-444.47374329 695.43119627 -447.88396648 699.06862623 -451.15625 702.93359375 C-455.09505747 707.34806229 -459.36827201 711.46159995 -463.59472656 715.59912109 C-464.94702322 716.94718889 -466.25211991 718.34210407 -467.5546875 719.73828125 C-472.5541926 724.36242415 -477.44433281 724.29025547 -483.91772461 724.25878906 C-484.80614548 724.2622937 -485.69456635 724.26579834 -486.60990906 724.26940918 C-489.54080059 724.27819699 -492.47144985 724.27238722 -495.40234375 724.265625 C-497.443487 724.26697262 -499.48462994 724.26891396 -501.52577209 724.27142334 C-505.80196186 724.27437071 -510.07806801 724.27008981 -514.35424805 724.26074219 C-519.82968023 724.24935516 -525.30491618 724.25590488 -530.78034115 724.26788712 C-534.99513725 724.2751223 -539.20988701 724.27281003 -543.42468452 724.26763153 C-545.44326361 724.26629925 -547.46184693 724.26792796 -549.48042107 724.27259064 C-552.30468727 724.27768227 -555.12863808 724.26990819 -557.95288086 724.25878906 C-559.19914246 724.26486176 -559.19914246 724.26486176 -560.47058105 724.27105713 C-566.36270039 724.22818726 -570.95003423 723.58406446 -575.75 719.875 C-580.30473935 714.05505528 -580.29343049 707.07906142 -580.25396729 699.97425842 C-580.25708727 699.09989291 -580.26020725 698.2255274 -580.26342177 697.32466596 C-580.27135926 694.41307009 -580.26509473 691.50168509 -580.25878906 688.59008789 C-580.26150083 686.49516173 -580.26506281 684.40023652 -580.26940918 682.30531311 C-580.27851387 676.62765382 -580.27499666 670.95006735 -580.26865101 665.27240682 C-580.26358043 659.32421631 -580.26828547 653.37603195 -580.27142334 647.42784119 C-580.27506018 637.43861779 -580.27027157 627.44942398 -580.26074219 617.46020508 C-580.24986118 605.92108476 -580.25338181 594.38203515 -580.264395 582.84291655 C-580.27347945 572.92676695 -580.27474739 563.0106386 -580.26951766 553.09448618 C-580.26640396 547.17597097 -580.2659721 541.25748896 -580.27259064 535.33897591 C-580.27838018 529.77312738 -580.2743377 524.20736973 -580.26280212 518.64153099 C-580.26016402 516.602196 -580.26090607 514.56285333 -580.26532745 512.52352142 C-580.27081802 509.73315376 -580.2639063 506.94307466 -580.25396729 504.15272522 C-580.25842873 503.35173482 -580.26289017 502.55074441 -580.26748681 501.72548157 C-580.21654465 494.31751852 -579.7568146 486.90255484 -574.3125 481.4375 C-573.11560547 480.2 -573.11560547 480.2 -571.89453125 478.9375 C-571.44158691 478.48117187 -570.98864258 478.02484375 -570.52197266 477.5546875 C-568.7781227 475.77335345 -567.08149686 473.95307526 -565.38671875 472.125 C-559.33590008 465.59993834 -553.22660006 459.16409951 -546.88671875 452.91796875 C-545.10697128 451.10874306 -543.45455941 449.24648108 -541.8125 447.3125 C-537.83975012 442.66987193 -533.46751683 438.44177666 -529.12768555 434.1472168 C-525.44299169 430.4862092 -521.92840609 426.75465041 -518.5703125 422.7890625 C-516.24391592 420.13859077 -513.72352951 417.69858022 -511.1875 415.25 C-509.30245082 413.31109227 -507.54383851 411.32988144 -505.78125 409.28125 C-501.2254971 404.03582022 -496.27025448 399.22069715 -491.31640625 394.35546875 C-487.25845003 390.34154099 -483.40970962 386.23721215 -479.68798828 381.91064453 C-476.99405434 378.8613638 -474.09710977 376.02920756 -471.1875 373.1875 C-466.76410066 368.88254638 -466.76410066 368.88254638 -463 364 C-462.34 364 -461.68 364 -461 364 C-460.79761719 363.46890625 -460.59523438 362.9378125 -460.38671875 362.390625 C-458.39596091 358.95867063 -455.65690615 356.4885827 -452.8125 353.75 C-449.31702923 350.36465491 -445.92562664 346.96612412 -442.76171875 343.265625 C-437.68561068 337.38245176 -432.07218968 332.01487334 -426.54296875 326.56347656 C-421.3441759 321.43124507 -416.24508088 316.27449523 -411.49316406 310.72021484 C-409.39628216 308.30448072 -407.15261228 306.05715648 -404.875 303.8125 C-404.06804687 303.01457031 -403.26109375 302.21664063 -402.4296875 301.39453125 C-401.62789062 300.60433594 -400.82609375 299.81414062 -400 299 C-396.33804485 295.3905251 -392.83580052 291.67438818 -389.375 287.875 C-384.61193032 282.67319728 -379.71833771 277.65555724 -374.66796875 272.73046875 C-372.59887586 270.61290517 -370.66509488 268.47985764 -368.73828125 266.23828125 C-364.00436599 260.77478686 -358.8234407 255.77606754 -353.671875 250.7109375 C-349.51177308 246.5932856 -345.55121834 242.39888987 -341.73730469 237.95996094 C-338.69219089 234.5245796 -335.40200891 231.33724589 -332.125 228.125 C-330.7919881 226.81742726 -329.46114384 225.50763985 -328.1328125 224.1953125 C-327.26487061 223.34477295 -327.26487061 223.34477295 -326.37939453 222.47705078 C-324.89627065 221.02889834 -324.89627065 221.02889834 -324 219 C-323.34 219 -322.68 219 -322 219 C-321.76369873 218.43700195 -321.52739746 217.87400391 -321.28393555 217.29394531 C-319.70192894 214.4674509 -317.77135991 212.56395401 -315.45703125 210.296875 C-314.09288086 208.94916016 -314.09288086 208.94916016 -312.70117188 207.57421875 C-311.73865469 206.63243069 -310.77576181 205.69102645 -309.8125 204.75 C-302.4448036 197.58904613 -302.4448036 197.58904613 -295.51171875 190.015625 C-290.53971389 184.20056992 -284.98697146 178.93085457 -279.54296875 173.56347656 C-274.35054477 168.4375324 -269.26120063 163.28608514 -264.515625 157.73828125 C-262.29578755 155.19233366 -259.91694746 152.86007811 -257.5 150.5 C-254.46554119 147.51055676 -251.4982886 144.5082803 -248.75 141.25 C-244.52216388 136.27424201 -239.80890714 131.76108502 -235.15332031 127.19042969 C-234.5187793 126.56426758 -233.88423828 125.93810547 -233.23046875 125.29296875 C-232.65707764 124.7311792 -232.08368652 124.16938965 -231.49291992 123.59057617 C-229.79042085 121.86435723 -229.79042085 121.86435723 -228 119 C-227.34 119 -226.68 119 -226 119 C-225.79761719 118.46890625 -225.59523438 117.9378125 -225.38671875 117.390625 C-223.39546988 113.95782413 -220.65533126 111.49103174 -217.8125 108.75 C-213.59977801 104.62000431 -209.55704484 100.45805534 -205.73828125 95.95703125 C-202.78031458 92.62682607 -199.56192082 89.55518114 -196.39453125 86.42578125 C-194.39739109 84.40257727 -192.52509316 82.35339764 -190.6875 80.1875 C-186.95123325 75.81225176 -182.85304903 71.82655819 -178.76513672 67.78466797 C-175.2641466 64.30794113 -171.950677 60.74777711 -168.76171875 56.98046875 C-165.68762929 53.52467416 -162.34808421 50.33060785 -159.0390625 47.1015625 C-156.95873909 45.16903954 -156.95873909 45.16903954 -156 43 C-155.34 43 -154.68 43 -154 43 C-153.74565186 42.41895508 -153.49130371 41.83791016 -153.22924805 41.23925781 C-151.86726505 38.75820358 -150.3568556 37.14481897 -148.33203125 35.171875 C-147.60306641 34.45386719 -146.87410156 33.73585937 -146.12304688 32.99609375 C-145.36056641 32.25488281 -144.59808594 31.51367188 -143.8125 30.75 C-137.33501788 24.4242022 -131.13650864 18.02116492 -125.5625 10.875 C-121.33383392 6.13064293 -118.09500817 2.50800846 -111.56445312 1.43609619 C-107.27209021 1.20843664 -103.01533905 1.16795823 -98.71875 1.1953125 C-97.10288543 1.1840183 -95.48703723 1.17011884 -93.87121582 1.15377808 C-89.60901276 1.11776527 -85.34752518 1.11734214 -81.08520508 1.12445068 C-76.86916215 1.12534653 -72.65341582 1.09250617 -68.4375 1.0625 C-61.01925764 1.01469096 -53.60142874 0.99902227 -46.18304443 1.00192642 C-41.4327993 1.0031823 -36.68280195 0.99333281 -31.93260956 0.97072792 C-28.9736 0.95682748 -26.01458426 0.94688325 -23.05555725 0.9375267 C-21.03144984 0.92992304 -19.00736094 0.91780767 -16.98327637 0.9055481 C-11.21732843 0.89366889 -5.67434144 0.92946904 0 2 C0 1.34 0 0.68 0 0 Z " fill="#2DD1FE" transform="translate(700,160)"/>
<path d="M0 0 C2.94097113 2.54454949 5.65708493 5.28314923 8.375 8.0625 C9.11105469 8.79533203 9.84710937 9.52816406 10.60546875 10.28320312 C16 15.73278061 16 15.73278061 16 18 C16.66 18 17.32 18 18 18 C20.125 19.875 20.125 19.875 22 22 C22 22.66 22 23.32 22 24 C22.66 24 23.32 24 24 24 C24 24.66 24 25.32 24 26 C24.66 26 25.32 26 26 26 C27.234375 27.2578125 27.234375 27.2578125 28.75 29.125 C32.98545856 34.14614063 37.65929058 38.68706489 42.37597656 43.25048828 C42.97249023 43.83556152 43.56900391 44.42063477 44.18359375 45.0234375 C44.72556396 45.54856934 45.26753418 46.07370117 45.82592773 46.61474609 C47 48 47 48 47 50 C47.99 50.33 48.98 50.66 50 51 C51.31445312 52.33789062 51.31445312 52.33789062 52.78125 54.15625 C56.26035279 58.25662115 59.96957623 62.05680442 63.78125 65.84375 C64.40201416 66.46121094 65.02277832 67.07867188 65.66235352 67.71484375 C67.60630023 69.64519297 69.55271215 71.57302158 71.5 73.5 C86.17157008 88.01855146 86.17157008 88.01855146 91.35791016 94.13964844 C95.60675603 98.95323832 100.34698819 103.33825817 104.94335938 107.81640625 C105.72388672 108.58597656 106.50441406 109.35554687 107.30859375 110.1484375 C108.01814209 110.84114746 108.72769043 111.53385742 109.45874023 112.24755859 C111 114 111 114 111 116 C111.59868896 116.26087402 112.19737793 116.52174805 112.81420898 116.79052734 C115.15829352 118.0875892 116.29840883 119.27983584 117.97265625 121.3515625 C121.12627844 125.07864709 124.46139856 128.53544807 127.93359375 131.9609375 C128.46022614 132.48190002 128.98685852 133.00286255 129.52944946 133.53961182 C131.72573264 135.70882849 133.92615758 137.87375908 136.13061523 140.03466797 C137.75674919 141.63078899 139.37675895 143.23292323 140.99609375 144.8359375 C141.49910507 145.3254892 142.00211639 145.81504089 142.52037048 146.31942749 C143.71861993 147.50883537 144.86483363 148.75024396 146 150 C146 150.66 146 151.32 146 152 C147.32 152.66 148.64 153.32 150 154 C150 154.66 150 155.32 150 156 C150.66 156 151.32 156 152 156 C153.35742188 157.38085938 153.35742188 157.38085938 154.96875 159.34375 C159.51960875 164.69548452 164.50024003 169.570958 169.5 174.5 C179.66173415 184.51800382 179.66173415 184.51800382 183.40625 188.90625 C188.27010648 194.58553461 193.68260846 199.75065552 199 205 C210.7210878 216.57109216 210.7210878 216.57109216 214.44140625 220.9453125 C217.50654704 224.53943876 220.79767642 227.85907179 224.15234375 231.1796875 C224.70177643 231.72361145 225.25120911 232.2675354 225.81729126 232.82794189 C228.10881136 235.09169127 230.40402007 237.35162469 232.70336914 239.60742188 C234.39900186 241.2730413 236.08851301 242.94467587 237.77734375 244.6171875 C238.30222885 245.12861298 238.82711395 245.64003845 239.36790466 246.16696167 C240.61695159 247.40717829 241.81402517 248.69933895 243 250 C243 250.66 243 251.32 243 252 C243.99 252.33 244.98 252.66 246 253 C247.47485352 254.50048828 247.47485352 254.50048828 249.06640625 256.4453125 C254.1943198 262.49196037 259.91765448 267.92859214 265.58789062 273.4609375 C266.41353516 274.275625 267.23917969 275.0903125 268.08984375 275.9296875 C268.84128662 276.66429199 269.59272949 277.39889648 270.36694336 278.15576172 C272 280 272 280 272 282 C272.66 282 273.32 282 274 282 C274 282.66 274 283.32 274 284 C274.99 284.33 275.98 284.66 277 285 C279.04296875 287.07421875 279.04296875 287.07421875 281.1875 289.6875 C281.90292969 290.53699219 282.61835937 291.38648438 283.35546875 292.26171875 C285.28815342 295.4797994 285.42524901 297.30759394 285 301 C283.14657225 303.55949546 282.06243607 303.97918798 279 305 C277.48626007 305.09336703 275.96874326 305.13087917 274.45213032 305.13422108 C273.04502087 305.14090784 273.04502087 305.14090784 271.60948497 305.14772969 C270.57701536 305.14754533 269.54454575 305.14736097 268.48078918 305.14717102 C267.38539485 305.15084771 266.29000052 305.1545244 265.16141242 305.1583125 C261.47194279 305.16937102 257.78250131 305.17319686 254.09301758 305.17700195 C251.4553409 305.18326495 248.81766724 305.18989865 246.17999268 305.19691467 C238.25084734 305.21667732 230.32170072 305.22674517 222.39253691 305.23564246 C218.6583293 305.24002581 214.9241231 305.24539251 211.18991661 305.25063133 C198.77607041 305.26764363 186.36222509 305.28213764 173.94836903 305.28938007 C170.72689119 305.29128996 167.50541336 305.29321029 164.28393555 305.29516602 C163.08291497 305.29589163 163.08291497 305.29589163 161.85763135 305.2966319 C148.88809709 305.30493161 135.91865507 305.3302675 122.94916109 305.36274669 C109.6329595 305.39582219 96.31680478 305.41382929 83.00056189 305.41702431 C75.52426571 305.41918899 68.04810405 305.42793134 60.57184792 305.45348549 C54.20445302 305.47519925 47.83722531 305.48323966 41.46979759 305.47351871 C38.22213362 305.46897581 34.97488634 305.47304399 31.72725487 305.49028015 C28.2025881 305.50794 24.67879604 305.50092088 21.15412903 305.48774719 C19.62215503 305.50420106 19.62215503 305.50420106 18.05923206 305.52098733 C10.79227532 305.45542513 5.54202255 303.90736749 -0.1105957 299.26757812 C-0.62710693 298.69458984 -1.14361816 298.12160156 -1.67578125 297.53125 C-2.27028076 296.88389893 -2.86478027 296.23654785 -3.47729492 295.56958008 C-4.0829126 294.88661865 -4.68853027 294.20365723 -5.3125 293.5 C-5.96130127 292.78803467 -6.61010254 292.07606934 -7.27856445 291.3425293 C-8.58680378 289.90519272 -9.89020916 288.46343985 -11.18847656 287.01708984 C-13.66449836 284.2600963 -16.17676856 281.53791718 -18.6875 278.8125 C-19.54472656 277.87148438 -20.40195312 276.93046875 -21.28515625 275.9609375 C-23.27437134 273.78160405 -25.28643748 271.62535886 -27.30859375 269.4765625 C-27.86135986 268.88641357 -28.41412598 268.29626465 -28.98364258 267.68823242 C-30.05382796 266.54673318 -31.12771927 265.40869368 -32.20581055 264.2746582 C-34.46755318 261.85539257 -35.93913371 260.18259888 -37 257 C-37.66 257 -38.32 257 -39 257 C-40.62109375 255.35546875 -40.62109375 255.35546875 -42.4375 253.1875 C-44.97339332 250.17536735 -44.97339332 250.17536735 -47.72265625 247.36328125 C-49 246 -49 246 -49 244 C-49.66 244 -50.32 244 -51 244 C-52.62109375 242.35546875 -52.62109375 242.35546875 -54.4375 240.1875 C-56.97339332 237.17536735 -56.97339332 237.17536735 -59.72265625 234.36328125 C-61 233 -61 233 -61 231 C-61.66 231 -62.32 231 -63 231 C-64.3046875 229.70703125 -64.3046875 229.70703125 -65.875 227.8125 C-69.11922053 223.99378208 -72.4651518 220.29487594 -75.875 216.625 C-79.40527714 212.8177637 -82.91580507 208.99723313 -86.375 205.125 C-90.79577266 200.18793273 -95.32130105 195.35181535 -99.86474609 190.52783203 C-102.78900645 187.41269525 -105.65964309 184.26551121 -108.4609375 181.0390625 C-112.03681862 176.92545489 -115.75205619 172.95659222 -119.5 169 C-139.70442683 147.67079064 -139.70442683 147.67079064 -142.125 140.8125 C-141.81090356 133.74533 -136.63632923 129.11045425 -132 124.3125 C-131.33226562 123.61060547 -130.66453125 122.90871094 -129.9765625 122.18554688 C-125.25741901 117.24491102 -120.45608466 112.39310813 -115.5625 107.625 C-113.51510155 105.52766501 -111.59835475 103.405302 -109.6875 101.1875 C-105.36368325 96.19920059 -100.67085722 91.61969137 -95.9609375 87 C-92.04013229 83.12460953 -88.34324905 79.14503915 -84.74609375 74.96875 C-81.81371668 71.66244565 -78.65416989 68.59280628 -75.5 65.5 C-71.09320144 61.14028148 -66.80763307 56.77547052 -62.8125 52.03125 C-59.78347139 48.63664897 -56.51584299 45.47510213 -53.26098633 42.2980957 C-50.92568535 40.00255104 -48.7806532 37.71940452 -46.76171875 35.13671875 C-46.18035156 34.43160156 -45.59898437 33.72648438 -45 33 C-44.34 33 -43.68 33 -43 33 C-42.75016357 32.4234668 -42.50032715 31.84693359 -42.24291992 31.25292969 C-40.82641968 28.68536649 -39.21078033 27.00010232 -37.11328125 24.953125 C-36.33919922 24.19 -35.56511719 23.426875 -34.76757812 22.640625 C-33.95740234 21.85171875 -33.14722656 21.0628125 -32.3125 20.25 C-27.15712036 15.20806392 -22.12509597 10.16078989 -17.46020508 4.65673828 C-11.92511621 -1.62333412 -7.47335712 -4.5308855 0 0 Z " fill="#2ED1FE" transform="translate(607,579)"/>
<path d="M0 0 C5.57776694 -0.12676743 5.57776694 -0.12676743 7.69140625 0.5078125 C11.17408727 1.25031302 14.64729347 1.01250438 18.1875 0.9375 C33.30056592 0.81747883 33.30056592 0.81747883 38.9375 5.375 C42.6228001 10.06538194 43.2509208 12.98798101 43.26069641 19.00839233 C43.26452196 19.7140312 43.26834751 20.41967006 43.27228898 21.14669192 C43.28260754 23.51111909 43.27862904 25.87530291 43.2746582 28.23974609 C43.27900535 29.9350151 43.2841885 31.63028215 43.29014587 33.32554626 C43.30354771 37.93095939 43.30411317 42.53629051 43.30158257 47.14171934 C43.30051354 50.98616403 43.30539456 54.83059208 43.310188 58.67503321 C43.32128754 67.74528217 43.32171824 76.81548972 43.31567383 85.88574219 C43.30963435 95.24247423 43.32194338 104.59905589 43.3432439 113.95576227 C43.36085904 121.98900098 43.36686134 130.02219182 43.36360615 138.05544913 C43.36179282 142.85333635 43.36443437 147.65111632 43.37832069 152.44898605 C43.39089279 156.9617626 43.3889608 161.47430478 43.37590981 165.98707771 C43.37354303 167.64227057 43.37628236 169.2974799 43.38453293 170.95265388 C43.39499391 173.21458787 43.38690557 175.47573454 43.3742218 177.73764038 C43.37438954 179.00267584 43.37455729 180.2677113 43.37473011 181.57108116 C42.43770485 190.14520816 35.92850207 196.83803492 29.4375 202.0625 C28.633125 202.701875 27.82875 203.34125 27 204 C25.95214383 205.17040833 24.92452767 206.35904849 23.91015625 207.55859375 C19.11912607 213.09332858 13.8884871 218.15997745 8.671875 223.2890625 C4.51332444 227.40517887 0.55517182 231.59838878 -3.2578125 236.03515625 C-6.97349533 240.22571334 -11.04265713 244.08015412 -15.0390625 248 C-18.31700634 251.23997537 -21.49135561 254.50697069 -24.5 258 C-28.75032812 262.93462131 -33.39258338 267.44253389 -38.0390625 272 C-41.97003836 275.88544332 -45.67858086 279.87527415 -49.28515625 284.0625 C-52.0488548 287.18503868 -55.02151819 290.08420571 -58 293 C-62.23406016 297.18538009 -66.31832043 301.39679523 -70.1640625 305.9453125 C-73.16220293 309.30067817 -76.3978575 312.41743761 -79.59814453 315.57861328 C-82.34358167 318.30340157 -84.99285 321.05041177 -87.5 324 C-90.97476522 328.08795909 -94.77950812 331.80672837 -98.59326172 335.57373047 C-101.96296945 338.91804637 -105.13005728 342.36363184 -108.203125 345.984375 C-111.29212567 349.44942793 -114.63981972 352.65758843 -117.9609375 355.8984375 C-120.04126091 357.83096046 -120.04126091 357.83096046 -121 360 C-121.66 360 -122.32 360 -123 360 C-123 360.66 -123 361.32 -123 362 C-123.66 362 -124.32 362 -125 362 C-125.21269531 362.54140625 -125.42539063 363.0828125 -125.64453125 363.640625 C-127.49017693 366.85321864 -130.0395983 369.20555722 -132.6875 371.75 C-136.25049536 375.2363718 -139.74076411 378.72241069 -143 382.5 C-143.53496094 383.11746094 -144.06992188 383.73492188 -144.62109375 384.37109375 C-145.78908298 385.75084307 -146.92903294 387.15425305 -148.0625 388.5625 C-150 390 -150 390 -153.25 389.75 C-154.61125 389.37875 -154.61125 389.37875 -156 389 C-157.49270141 384.31510465 -158.25022915 380.38701837 -158.25168228 375.42664337 C-158.25689778 374.13861675 -158.26211327 372.85059012 -158.26748681 371.52353239 C-158.26316334 370.10654869 -158.25865005 368.68956556 -158.25396729 367.27258301 C-158.25627288 365.75772721 -158.25945007 364.24287253 -158.26342177 362.72802019 C-158.27176485 358.57294183 -158.26764671 354.41795543 -158.26144934 350.26287675 C-158.25692387 345.77883677 -158.26390908 341.2948126 -158.26940918 336.81077576 C-158.2783038 328.02955164 -158.27638086 319.24836172 -158.2705839 310.46713626 C-158.26606769 303.33063214 -158.26545433 296.19413759 -158.26763153 289.05763245 C-158.267938 288.04204436 -158.26824446 287.02645628 -158.26856022 285.98009279 C-158.26919966 283.91696465 -158.26984809 281.8538365 -158.2705054 279.79070836 C-158.27620889 260.4433857 -158.26965049 241.09608199 -158.25890467 221.74876243 C-158.24996914 205.14678916 -158.25152118 188.54484386 -158.26074219 171.94287109 C-158.27144447 152.6649166 -158.27565957 133.38697871 -158.26951766 114.10902166 C-158.26888056 112.0534703 -158.26825182 109.99791893 -158.26763153 107.94236755 C-158.26732298 106.93098898 -158.26701443 105.91961042 -158.26669653 104.87758401 C-158.26496946 97.74940437 -158.26788494 90.62123526 -158.27259064 83.49305725 C-158.27819899 74.80655936 -158.27668396 66.12009763 -158.26602915 57.43360388 C-158.26077185 53.0013846 -158.25871673 48.5692256 -158.26532745 44.13700676 C-158.27128775 40.07951692 -158.26801043 36.02214323 -158.25737235 31.96466392 C-158.25513867 30.49706097 -158.25627389 29.0294482 -158.26112393 27.56185156 C-158.26721457 25.56569339 -158.25976512 23.56950772 -158.25168228 21.57335663 C-158.25135758 20.46495029 -158.25103287 19.35654395 -158.25069833 18.21454954 C-157.85797722 13.17892971 -156.93103405 9.19704378 -153.8125 5.1875 C-146.81867438 -0.25214215 -138.44026876 0.72580208 -129.98657227 0.77294922 C-128.56683866 0.77351398 -127.14710448 0.77319551 -125.72737122 0.77206421 C-121.88901349 0.77149222 -118.05078169 0.78322147 -114.21245313 0.79721212 C-110.19526645 0.80974526 -106.17807663 0.81089202 -102.16087341 0.81326294 C-94.56081222 0.81947013 -86.96080882 0.83587062 -79.36077303 0.85596192 C-70.70540262 0.87834464 -62.05002939 0.88932031 -53.39463723 0.89935279 C-35.5963921 0.92023754 -17.7982007 0.95539869 0 1 C0 0.67 0 0.34 0 0 Z " fill="#2DD0FE" transform="translate(278,160)"/>
<path d="M0 0 C0.33 0 0.66 0 1 0 C1.00173625 0.79408571 1.0034725 1.58817142 1.00526136 2.40632033 C1.10821676 49.43631819 1.2163135 96.46630181 1.33111694 143.49627231 C1.34488706 149.13911634 1.35861407 154.78196048 1.37231445 160.42480469 C1.37504276 161.5482266 1.37777106 162.67164851 1.38058204 163.82911351 C1.42469616 182.03614405 1.46531632 200.24318081 1.50465261 218.45022222 C1.54507171 237.12257597 1.58922844 255.79491817 1.63687855 274.46725488 C1.66617925 285.99557183 1.69254009 297.5238879 1.71517897 309.0522199 C1.73096738 316.95010188 1.75037558 324.84796971 1.77266841 332.74583599 C1.7854355 337.30723101 1.79657011 341.86861512 1.80341911 346.43002319 C1.80971899 350.60233874 1.82054299 354.77461669 1.8350333 358.9469116 C1.83947659 360.45975467 1.84223008 361.97260379 1.84316199 363.4854531 C1.84466699 365.53553624 1.85281784 367.58561133 1.8613348 369.63567734 C1.86532186 371.34669715 1.86532186 371.34669715 1.86938947 373.09228301 C1.98100351 375.57709057 2.27444864 377.63398952 3 380 C2.34 380 1.68 380 1 380 C-0.49359407 375.31339921 -1.24986167 371.38628684 -1.24888897 366.42385006 C-1.25348777 365.13520674 -1.25808656 363.84656341 -1.26282471 362.51887029 C-1.25781043 361.1011975 -1.2526082 359.68352537 -1.24723816 358.26585388 C-1.24882726 356.75028579 -1.25129187 355.2347184 -1.25455457 353.71915299 C-1.26095944 349.56213988 -1.25490659 345.40522438 -1.24679029 341.2482177 C-1.24020636 336.76215502 -1.24516327 332.27610313 -1.24867249 327.79003906 C-1.25371233 319.00513678 -1.24807561 310.22027216 -1.23882218 301.43537455 C-1.22843537 291.20664766 -1.22850845 280.9779289 -1.22899476 270.74919773 C-1.22949534 252.50018962 -1.22033493 234.25119905 -1.20581055 216.00219727 C-1.19172117 198.29060548 -1.18463987 180.57902911 -1.18530273 162.86743164 C-1.18534269 161.77643575 -1.18538265 160.68543985 -1.18542381 159.56138348 C-1.18546417 158.4722812 -1.18550452 157.38317891 -1.1855461 156.26107353 C-1.18623584 136.10147291 -1.18034671 115.94187886 -1.17139288 95.78228037 C-1.16837582 88.6506291 -1.16731324 81.51897903 -1.16686058 74.38732719 C-1.16617862 65.69824705 -1.16171627 57.00917796 -1.15252777 48.32010251 C-1.14790923 43.88599824 -1.1448645 39.45190812 -1.14612198 35.01780128 C-1.14721701 30.9597766 -1.14369862 26.90178319 -1.13647345 22.84376503 C-1.13466032 21.37483393 -1.13452964 19.9058996 -1.13624074 18.43696838 C-1.13830809 16.44141465 -1.13363784 14.44585733 -1.12863445 12.4503088 C-1.12793003 11.34152274 -1.1272256 10.23273668 -1.12649983 9.09035105 C-0.99935249 5.98418159 -0.57813668 3.05174501 0 0 Z " fill="#2EBEF6" transform="translate(121,169)"/>
<path d="M0 0 C39.6 0.33 79.2 0.66 120 1 C120 1.66 120 2.32 120 3 C117.41560206 4.29219897 115.5671784 4.12295998 112.67233276 4.12025452 C110.97696381 4.12231651 110.97696381 4.12231651 109.24734497 4.12442017 C107.37863235 4.11902725 107.37863235 4.11902725 105.47216797 4.11352539 C104.16489746 4.11367142 102.85762695 4.11381744 101.51074219 4.1139679 C97.92005239 4.1142555 94.3293958 4.10836466 90.73871374 4.10139394 C86.98841869 4.09515433 83.23812293 4.09455612 79.48782349 4.09336853 C72.38343968 4.09025701 65.27907122 4.08204603 58.17469418 4.07201904 C50.08774211 4.06085235 42.00078933 4.05534605 33.91383147 4.05032361 C17.27587866 4.03986327 0.63794129 4.02226728 -16 4 C-16 3.67 -16 3.34 -16 3 C-11.05 3 -6.1 3 -1 3 C-0.67 2.01 -0.34 1.02 0 0 Z " fill="#2CC0F8" transform="translate(641,880)"/>
<path d="M0 0 C1.08796875 0.16242187 2.1759375 0.32484375 3.296875 0.4921875 C8.61454787 1.15513967 13.89804835 1.14646505 19.25 1.125 C20.2296875 1.12886719 21.209375 1.13273438 22.21875 1.13671875 C23.63414062 1.13478516 23.63414062 1.13478516 25.078125 1.1328125 C25.92793945 1.13168457 26.77775391 1.13055664 27.65332031 1.12939453 C29.90034557 1.00549489 31.84431783 0.62630466 34 0 C34 0.33 34 0.66 34 1 C56.11 1 78.22 1 101 1 C97.1007458 3.5995028 93.8316616 3.28058345 89.30932617 3.25878906 C88.42119736 3.2622937 87.53306854 3.26579834 86.61802673 3.26940918 C83.67626166 3.2782254 80.73473636 3.2723762 77.79296875 3.265625 C75.74896702 3.26697204 73.7049656 3.2689129 71.66096497 3.27142334 C67.37282263 3.27437475 63.08476353 3.27007771 58.79663086 3.26074219 C53.30544723 3.24936928 47.81445957 3.25589333 42.3232832 3.26788712 C38.0999047 3.27512367 33.87657243 3.27280915 29.65319252 3.26763153 C27.62903126 3.26629888 25.60486579 3.26792926 23.58070946 3.27259064 C20.74664626 3.27768291 17.91289729 3.26990664 15.07885742 3.25878906 C14.24487427 3.26283752 13.41089111 3.26688599 12.55163574 3.27105713 C7.97442355 3.23787798 4.310189 2.74320664 0 1 C0 0.67 0 0.34 0 0 Z " fill="#31B2EF" transform="translate(127,881)"/>
<path d="M0 0 C1.084021 0.00523682 2.16804199 0.01047363 3.28491211 0.01586914 C4.45473633 0.0190918 5.62456055 0.02231445 6.82983398 0.02563477 C8.0615332 0.03401367 9.29323242 0.04239258 10.56225586 0.05102539 C12.41560547 0.05779297 12.41560547 0.05779297 14.30639648 0.06469727 C17.37089703 0.07652931 20.43530307 0.09301366 23.49975586 0.11352539 C23.49975586 0.77352539 23.49975586 1.43352539 23.49975586 2.11352539 C24.15975586 2.44352539 24.81975586 2.77352539 25.49975586 3.11352539 C11.30975586 3.11352539 -2.88024414 3.11352539 -17.50024414 3.11352539 C-17.50024414 2.78352539 -17.50024414 2.45352539 -17.50024414 2.11352539 C-16.5012207 2.05293945 -15.50219727 1.99235352 -14.47290039 1.92993164 C-13.18254883 1.84614258 -11.89219727 1.76235352 -10.56274414 1.67602539 C-9.2749707 1.59481445 -7.98719727 1.51360352 -6.66040039 1.42993164 C-3.42595858 1.10608765 -3.04848564 0.13841869 0 0 Z " fill="#2DC4F8" transform="translate(801.500244140625,880.886474609375)"/>
<path d="M0 0 C0 3 0 3 -2.51953125 5.7421875 C-3.60995892 6.79400418 -4.70797598 7.8379959 -5.8125 8.875 C-9.5340472 12.39052515 -12.42719929 15.52786701 -15 20 C-16.62109375 21.59765625 -16.62109375 21.59765625 -18.4375 23.0625 C-26.41013897 29.80971483 -34.36964299 37.15229612 -40 46 C-40.99 45.67 -41.98 45.34 -43 45 C-28.46529469 29.38417714 -28.46529469 29.38417714 -20.89453125 21.92578125 C-19.07207244 20.07326126 -17.3739755 18.16377559 -15.6875 16.1875 C-10.79643529 10.47353104 -5.35397841 5.27485557 0 0 Z " fill="#2BBDF6" transform="translate(174,591)"/>
<path d="M0 0 C0 3 0 3 -1.29760742 4.62231445 C-1.89420166 5.1968335 -2.4907959 5.77135254 -3.10546875 6.36328125 C-3.75966797 7.00330078 -4.41386719 7.64332031 -5.08789062 8.30273438 C-5.78076172 8.96595703 -6.47363281 9.62917969 -7.1875 10.3125 C-11.72499664 14.70236517 -16.05755338 19.06237268 -20 24 C-20.66 23.67 -21.32 23.34 -22 23 C-14.87735425 15.10584911 -7.58484297 7.45280508 0 0 Z " fill="#29C1F9" transform="translate(235,527)"/>
<path d="M0 0 C0 3 0 3 -2.625 5.91796875 C-3.74249406 7.01550756 -4.86785643 8.10507895 -6 9.1875 C-6.57234375 9.74630859 -7.1446875 10.30511719 -7.734375 10.88085938 C-9.14962788 12.26073093 -10.57397155 13.63126734 -12 15 C-12.33 14.01 -12.66 13.02 -13 12 C-11 9 -11 9 -8.75 7.6875 C-5.25281136 5.54149788 -2.83236452 2.9641024 0 0 Z " fill="#2CB5F3" transform="translate(252,857)"/>
<path d="M0 0 C0.66 0.66 1.32 1.32 2 2 C-0.64 4.64 -3.28 7.28 -6 10 C-6.33 9.01 -6.66 8.02 -7 7 C-5.71034824 5.62437146 -4.37310707 4.29233607 -3 3 C-2.34 3 -1.68 3 -1 3 C-0.67 2.01 -0.34 1.02 0 0 Z " fill="#2ABAF7" transform="translate(263,844)"/>
<path d="M0 0 C1.32 0.33 2.64 0.66 4 1 C1.36 3.97 -1.28 6.94 -4 10 C-4 6.08087178 -2.4275386 4.95856266 0 2 C0 1.34 0 0.68 0 0 Z " fill="#2EBEF6" transform="translate(136,536)"/>
<path d="M0 0 C0.99 0.33 1.98 0.66 3 1 C-0.465 3.97 -0.465 3.97 -4 7 C-3.04065919 3.16263678 -2.76390737 2.40339772 0 0 Z " fill="#2CBFF7" transform="translate(316,788)"/>
<path d="M0 0 C2.31 0 4.62 0 7 0 C7 0.33 7 0.66 7 1 C4.69 1 2.38 1 0 1 C0 0.67 0 0.34 0 0 Z " fill="#33C4EE" transform="translate(144,160)"/>
<path d="M0 0 C1.98 0 3.96 0 6 0 C6 0.33 6 0.66 6 1 C4.02 1 2.04 1 0 1 C0 0.67 0 0.34 0 0 Z " fill="#32D8F6" transform="translate(817,160)"/>
<path d="M0 0 C1.65 0 3.3 0 5 0 C5 0.33 5 0.66 5 1 C3.35 1 1.7 1 0 1 C0 0.67 0 0.34 0 0 Z " fill="#31C3EF" transform="translate(815,885)"/>
<path d="M0 0 C1.65 0 3.3 0 5 0 C5 0.33 5 0.66 5 1 C3.35 1 1.7 1 0 1 C0 0.67 0 0.34 0 0 Z " fill="#31C9F0" transform="translate(292,160)"/>
<path d="M0 0 C3 1 3 1 3 1 Z " fill="#32C4F0" transform="translate(847,885)"/>
<path d="M0 0 C3 1 3 1 3 1 Z " fill="#32C3EF" transform="translate(839,885)"/>
<path d="M0 0 C3 1 3 1 3 1 Z " fill="#32C3F1" transform="translate(831,885)"/>
<path d="M0 0 C3 1 3 1 3 1 Z " fill="#31C2F1" transform="translate(759,885)"/>
<path d="M0 0 C3 1 3 1 3 1 Z " fill="#31C0F1" transform="translate(751,885)"/>
<path d="M0 0 C3 1 3 1 3 1 Z " fill="#31B0E9" transform="translate(207,885)"/>
<path d="M0 0 C3 1 3 1 3 1 Z " fill="#32B1E9" transform="translate(199,885)"/>
<path d="M0 0 C3 1 3 1 3 1 Z " fill="#33AFE8" transform="translate(159,885)"/>
<path d="M0 0 C3 1 3 1 3 1 Z " fill="#34AFE8" transform="translate(151,885)"/>
<path d="M0 0 C3 1 3 1 3 1 Z " fill="#33D1F4" transform="translate(593,160)"/>
<path d="M0 0 C3 1 3 1 3 1 Z " fill="#31CBF1" transform="translate(273,160)"/>
<path d="M0 0 C3 1 3 1 3 1 Z " fill="#32C7F1" transform="translate(204,160)"/>
<path d="M0 0 C3 1 3 1 3 1 Z " fill="#32C8F1" transform="translate(200,160)"/>
<path d="M0 0 C3 1 3 1 3 1 Z " fill="#32C6F0" transform="translate(164,160)"/>
<path d="M0 0 C3 1 3 1 3 1 Z " fill="#34C0E9" transform="translate(137,160)"/>
<path d="M0 0 C3 1 3 1 3 1 Z " fill="#39B9E2" transform="translate(130,160)"/>
<path d="" fill="#34ADE5" transform="translate(0,0)"/>
<path d="M0 0 C2 1 2 1 2 1 Z " fill="#33C0EB" transform="translate(867,885)"/>
<path d="M0 0 C2 1 2 1 2 1 Z " fill="#32C3ED" transform="translate(855,885)"/>
<path d="M0 0 C2 1 2 1 2 1 Z " fill="#32C3EF" transform="translate(851,885)"/>
<path d="M0 0 C2 1 2 1 2 1 Z " fill="#32C3EF" transform="translate(835,885)"/>
<path d="M0 0 C2 1 2 1 2 1 Z " fill="#30C2F0" transform="translate(803,885)"/>
<path d="M0 0 C2 1 2 1 2 1 Z " fill="#31C1F1" transform="translate(800,885)"/>
<path d="M0 0 C2 1 2 1 2 1 Z " fill="#30C4F1" transform="translate(792,885)"/>
<path d="M0 0 C2 1 2 1 2 1 Z " fill="#30C2F2" transform="translate(779,885)"/>
<path d="M0 0 C2 1 2 1 2 1 Z " fill="#31C4F1" transform="translate(768,885)"/>
<path d="M0 0 C2 1 2 1 2 1 Z " fill="#2FC0F1" transform="translate(714,885)"/>
<path d="M0 0 C2 1 2 1 2 1 Z " fill="#31C0EF" transform="translate(711,885)"/>
<path d="M0 0 C2 1 2 1 2 1 Z " fill="#30BDEE" transform="translate(675,885)"/>
<path d="M0 0 C2 1 2 1 2 1 Z " fill="#31B8EB" transform="translate(640,885)"/>
<path d="M0 0 C2 1 2 1 2 1 Z " fill="#32B1EB" transform="translate(191,885)"/>
<path d="M0 0 C2 1 2 1 2 1 Z " fill="#31B1ED" transform="translate(184,885)"/>
<path d="M0 0 C2 1 2 1 2 1 Z " fill="#32B1EA" transform="translate(170,885)"/>
<path d="M0 0 C2 1 2 1 2 1 Z " fill="#33AEE9" transform="translate(163,885)"/>
<path d="M0 0 C2 1 2 1 2 1 Z " fill="#36ACE3" transform="translate(136,885)"/>
<path d="M0 0 C2 1 2 1 2 1 Z " fill="#2DC9F2" transform="translate(667,640)"/>
<path d="M0 0 C2 1 2 1 2 1 Z " fill="#32CDF9" transform="translate(361,392)"/>
<path d="M0 0 C2 1 2 1 2 1 Z " fill="#2FCFF3" transform="translate(544,200)"/>
<path d="M0 0 C2 1 2 1 2 1 Z " fill="#32D8F3" transform="translate(853,160)"/>
<path d="M0 0 C2 1 2 1 2 1 Z " fill="#32D9F5" transform="translate(813,160)"/>
<path d="M0 0 C2 1 2 1 2 1 Z " fill="#33D9F7" transform="translate(793,160)"/>
<path d="M0 0 C2 1 2 1 2 1 Z " fill="#34D8F5" transform="translate(757,160)"/>
<path d="M0 0 C2 1 2 1 2 1 Z " fill="#33C3E5" transform="translate(310,160)"/>
<path d="M0 0 C2 1 2 1 2 1 Z " fill="#32C9ED" transform="translate(301,160)"/>
<path d="M0 0 C2 1 2 1 2 1 Z " fill="#32C9EE" transform="translate(298,160)"/>
<path d="M0 0 C2 1 2 1 2 1 Z " fill="#33CBF1" transform="translate(285,160)"/>
<path d="M0 0 C2 1 2 1 2 1 Z " fill="#31C9F3" transform="translate(265,160)"/>
<path d="M0 0 C2 1 2 1 2 1 Z " fill="#31CBF2" transform="translate(258,160)"/>
<path d="M0 0 C2 1 2 1 2 1 Z " fill="#31CBF2" transform="translate(253,160)"/>
<path d="M0 0 C2 1 2 1 2 1 Z " fill="#33C9F2" transform="translate(197,160)"/>
<path d="M0 0 C2 1 2 1 2 1 Z " fill="#32C7F2" transform="translate(188,160)"/>
<path d="" fill="#2E5463" transform="translate(0,0)"/>
<path d="" fill="#35B9E3" transform="translate(0,0)"/>
<path d="" fill="#35C2E8" transform="translate(0,0)"/>
<path d="" fill="#32C2EE" transform="translate(0,0)"/>
<path d="" fill="#32C5EE" transform="translate(0,0)"/>
<path d="" fill="#31C5EE" transform="translate(0,0)"/>
<path d="" fill="#31C4F0" transform="translate(0,0)"/>
<path d="" fill="#30C5F1" transform="translate(0,0)"/>
<path d="" fill="#32C3EE" transform="translate(0,0)"/>
<path d="" fill="#30C4F2" transform="translate(0,0)"/>
<path d="" fill="#31C2EF" transform="translate(0,0)"/>
<path d="" fill="#2FC4F2" transform="translate(0,0)"/>
<path d="" fill="#32C2EF" transform="translate(0,0)"/>
<path d="" fill="#31C3F2" transform="translate(0,0)"/>
<path d="" fill="#30C3F0" transform="translate(0,0)"/>
<path d="" fill="#31C3F2" transform="translate(0,0)"/>
<path d="" fill="#30C1F1" transform="translate(0,0)"/>
<path d="" fill="#2FC2F1" transform="translate(0,0)"/>
<path d="" fill="#30BFEF" transform="translate(0,0)"/>
<path d="" fill="#31C1F1" transform="translate(0,0)"/>
<path d="" fill="#31C0EF" transform="translate(0,0)"/>
<path d="" fill="#31C1EF" transform="translate(0,0)"/>
<path d="" fill="#2FBFF0" transform="translate(0,0)"/>
<path d="" fill="#30BEEF" transform="translate(0,0)"/>
<path d="" fill="#32BDF0" transform="translate(0,0)"/>
<path d="" fill="#32BCEB" transform="translate(0,0)"/>
<path d="" fill="#32B9ED" transform="translate(0,0)"/>
<path d="" fill="#33B9EA" transform="translate(0,0)"/>
<path d="" fill="#32B8EB" transform="translate(0,0)"/>
<path d="" fill="#31B8EA" transform="translate(0,0)"/>
<path d="" fill="#30B6EA" transform="translate(0,0)"/>
<path d="" fill="#33B4E9" transform="translate(0,0)"/>
<path d="" fill="#33AFE9" transform="translate(0,0)"/>
<path d="" fill="#32B1E9" transform="translate(0,0)"/>
<path d="" fill="#33B0E9" transform="translate(0,0)"/>
<path d="" fill="#31AFE9" transform="translate(0,0)"/>
<path d="" fill="#33AFE9" transform="translate(0,0)"/>
<path d="" fill="#34AFEC" transform="translate(0,0)"/>
<path d="" fill="#34AEE9" transform="translate(0,0)"/>
<path d="" fill="#35AEE7" transform="translate(0,0)"/>
<path d="" fill="#36ADE4" transform="translate(0,0)"/>
<path d="" fill="#35ADE4" transform="translate(0,0)"/>
<path d="" fill="#34ACE3" transform="translate(0,0)"/>
<path d="" fill="#3AA7DC" transform="translate(0,0)"/>
<path d="" fill="#33AAE0" transform="translate(0,0)"/>
<path d="" fill="#33ABE0" transform="translate(0,0)"/>
<path d="" fill="#3CA0D4" transform="translate(0,0)"/>
<path d="" fill="#38ADD1" transform="translate(0,0)"/>
<path d="" fill="#31AFE6" transform="translate(0,0)"/>
<path d="" fill="#32B3E6" transform="translate(0,0)"/>
<path d="" fill="#39A5D6" transform="translate(0,0)"/>
<path d="" fill="#33B2E7" transform="translate(0,0)"/>
<path d="" fill="#32BFE6" transform="translate(0,0)"/>
<path d="" fill="#31C2EC" transform="translate(0,0)"/>
<path d="" fill="#30CAF1" transform="translate(0,0)"/>
<path d="" fill="#2EC6F2" transform="translate(0,0)"/>
<path d="" fill="#2EC7EF" transform="translate(0,0)"/>
<path d="" fill="#2FB6ED" transform="translate(0,0)"/>
<path d="" fill="#30BAF0" transform="translate(0,0)"/>
<path d="" fill="#31C5F1" transform="translate(0,0)"/>
<path d="" fill="#2FB8F1" transform="translate(0,0)"/>
<path d="" fill="#2BBAF1" transform="translate(0,0)"/>
<path d="" fill="#30BBF1" transform="translate(0,0)"/>
<path d="" fill="#2FB9EF" transform="translate(0,0)"/>
<path d="" fill="#2DBAED" transform="translate(0,0)"/>
<path d="" fill="#2FBAF2" transform="translate(0,0)"/>
<path d="" fill="#2EBCF3" transform="translate(0,0)"/>
<path d="" fill="#2EBFF5" transform="translate(0,0)"/>
<path d="" fill="#30BEF3" transform="translate(0,0)"/>
<path d="" fill="#2FBFF3" transform="translate(0,0)"/>
<path d="" fill="#2FCCF3" transform="translate(0,0)"/>
<path d="" fill="#2EBDF4" transform="translate(0,0)"/>
<path d="" fill="#2FCBF1" transform="translate(0,0)"/>
<path d="" fill="#33C3F9" transform="translate(0,0)"/>
<path d="" fill="#2FC4F6" transform="translate(0,0)"/>
<path d="" fill="#30C3F6" transform="translate(0,0)"/>
<path d="" fill="#2DCDF5" transform="translate(0,0)"/>
<path d="" fill="#31C6FA" transform="translate(0,0)"/>
<path d="" fill="#32C7F9" transform="translate(0,0)"/>
<path d="" fill="#31CCFB" transform="translate(0,0)"/>
<path d="" fill="#32CAFB" transform="translate(0,0)"/>
<path d="" fill="#33CAFD" transform="translate(0,0)"/>
<path d="" fill="#2DCEF9" transform="translate(0,0)"/>
<path d="" fill="#3AB1E2" transform="translate(0,0)"/>
<path d="" fill="#2ECBFA" transform="translate(0,0)"/>
<path d="" fill="#38B2E8" transform="translate(0,0)"/>
<path d="" fill="#2FCAF8" transform="translate(0,0)"/>
<path d="" fill="#31CDFC" transform="translate(0,0)"/>
<path d="" fill="#32CBFA" transform="translate(0,0)"/>
<path d="" fill="#2FCCF9" transform="translate(0,0)"/>
<path d="" fill="#30CDF9" transform="translate(0,0)"/>
<path d="" fill="#2FCBF8" transform="translate(0,0)"/>
<path d="" fill="#32BDF4" transform="translate(0,0)"/>
<path d="" fill="#2EC9F5" transform="translate(0,0)"/>
<path d="" fill="#32C1F4" transform="translate(0,0)"/>
<path d="" fill="#2ECDF8" transform="translate(0,0)"/>
<path d="" fill="#2EC8F4" transform="translate(0,0)"/>
<path d="" fill="#2EBFF8" transform="translate(0,0)"/>
<path d="" fill="#31C9F2" transform="translate(0,0)"/>
<path d="" fill="#2FCCF8" transform="translate(0,0)"/>
<path d="" fill="#38B1E6" transform="translate(0,0)"/>
<path d="" fill="#2EC4FA" transform="translate(0,0)"/>
<path d="" fill="#2CC4F7" transform="translate(0,0)"/>
<path d="" fill="#2BC4F7" transform="translate(0,0)"/>
<path d="" fill="#2CC5F9" transform="translate(0,0)"/>
<path d="" fill="#2DC5FA" transform="translate(0,0)"/>
<path d="" fill="#30C6F9" transform="translate(0,0)"/>
<path d="" fill="#2FCBFC" transform="translate(0,0)"/>
<path d="" fill="#2FCAFA" transform="translate(0,0)"/>
<path d="" fill="#2BC7F9" transform="translate(0,0)"/>
<path d="" fill="#2EC9F7" transform="translate(0,0)"/>
<path d="" fill="#2DC6F9" transform="translate(0,0)"/>
<path d="" fill="#2DCBED" transform="translate(0,0)"/>
<path d="" fill="#32CDF9" transform="translate(0,0)"/>
<path d="" fill="#32CCFA" transform="translate(0,0)"/>
<path d="" fill="#2DCAF9" transform="translate(0,0)"/>
<path d="" fill="#2EC9F8" transform="translate(0,0)"/>
<path d="" fill="#31CBFA" transform="translate(0,0)"/>
<path d="" fill="#30CEF8" transform="translate(0,0)"/>
<path d="" fill="#31CEF7" transform="translate(0,0)"/>
<path d="" fill="#2BD3F0" transform="translate(0,0)"/>
<path d="" fill="#38D2FA" transform="translate(0,0)"/>
<path d="" fill="#34CEF7" transform="translate(0,0)"/>
<path d="" fill="#31CCF5" transform="translate(0,0)"/>
<path d="" fill="#36D1F9" transform="translate(0,0)"/>
<path d="" fill="#2FCDF6" transform="translate(0,0)"/>
<path d="" fill="#2CD0F1" transform="translate(0,0)"/>
<path d="" fill="#36D0F8" transform="translate(0,0)"/>
<path d="" fill="#2FCEF6" transform="translate(0,0)"/>
<path d="" fill="#2DD2F4" transform="translate(0,0)"/>
<path d="" fill="#2ED1F2" transform="translate(0,0)"/>
<path d="" fill="#2ECFEF" transform="translate(0,0)"/>
<path d="" fill="#2DD0F0" transform="translate(0,0)"/>
<path d="" fill="#2ED4F3" transform="translate(0,0)"/>
<path d="" fill="#30D0F4" transform="translate(0,0)"/>
<path d="" fill="#30D0F6" transform="translate(0,0)"/>
<path d="" fill="#32CFF7" transform="translate(0,0)"/>
<path d="" fill="#30D3F6" transform="translate(0,0)"/>
<path d="" fill="#30D0F6" transform="translate(0,0)"/>
<path d="" fill="#2AD1F0" transform="translate(0,0)"/>
<path d="" fill="#2ED1F3" transform="translate(0,0)"/>
<path d="" fill="#2ED1F4" transform="translate(0,0)"/>
<path d="" fill="#2FD4F4" transform="translate(0,0)"/>
<path d="" fill="#34B9CF" transform="translate(0,0)"/>
<path d="" fill="#33D0EB" transform="translate(0,0)"/>
<path d="" fill="#32D5F1" transform="translate(0,0)"/>
<path d="" fill="#33D5F1" transform="translate(0,0)"/>
<path d="" fill="#32D9F5" transform="translate(0,0)"/>
<path d="" fill="#32D9F4" transform="translate(0,0)"/>
<path d="" fill="#31D9F5" transform="translate(0,0)"/>
<path d="" fill="#31DAF6" transform="translate(0,0)"/>
<path d="" fill="#32DAF5" transform="translate(0,0)"/>
<path d="" fill="#32D8F8" transform="translate(0,0)"/>
<path d="" fill="#32D9F6" transform="translate(0,0)"/>
<path d="" fill="#32DBF6" transform="translate(0,0)"/>
<path d="" fill="#33D9F7" transform="translate(0,0)"/>
<path d="" fill="#33D8F6" transform="translate(0,0)"/>
<path d="" fill="#33D8F7" transform="translate(0,0)"/>
<path d="" fill="#31D8F8" transform="translate(0,0)"/>
<path d="" fill="#31D9F8" transform="translate(0,0)"/>
<path d="" fill="#33D6F6" transform="translate(0,0)"/>
<path d="" fill="#32D7F7" transform="translate(0,0)"/>
<path d="" fill="#33D7F8" transform="translate(0,0)"/>
<path d="" fill="#34D5F7" transform="translate(0,0)"/>
<path d="" fill="#32D8F7" transform="translate(0,0)"/>
<path d="" fill="#32D8F8" transform="translate(0,0)"/>
<path d="" fill="#33D5F6" transform="translate(0,0)"/>
<path d="" fill="#30CAEB" transform="translate(0,0)"/>
<path d="" fill="#2FC9ED" transform="translate(0,0)"/>
<path d="" fill="#32CCF2" transform="translate(0,0)"/>
<path d="" fill="#31CCF3" transform="translate(0,0)"/>
<path d="" fill="#31CBF1" transform="translate(0,0)"/>
<path d="" fill="#33CAF2" transform="translate(0,0)"/>
<path d="" fill="#33CAF3" transform="translate(0,0)"/>
<path d="" fill="#32C9F2" transform="translate(0,0)"/>
<path d="" fill="#32C7F1" transform="translate(0,0)"/>
<path d="" fill="#32C6F0" transform="translate(0,0)"/>
<path d="" fill="#32C7F0" transform="translate(0,0)"/>
<path d="" fill="#33C4EE" transform="translate(0,0)"/>
<path d="" fill="#33C8EF" transform="translate(0,0)"/>
<path d="" fill="#6E7272" transform="translate(0,0)"/>
</svg>
